PathFileType	4	(X/Y/Z)	/Users/itak/Documents/Research/Walk-IL/dataset/trc/00372_00011.trc
DataRate	CameraRate	NumFrames	NumMarkers	Units	OrigDataRate	OrigDataStartFrame	OrigNumFrames
100.000000	100.000000	4	56	mm	100.000000	217	581
Frame#	Time	RPSI			LPSI			L3			STRN			T10			C7			CLAV			RBAK			LBAK			LSHO			LUPA			LAEL			LAOL			LWPS			LFRA			LIFD			LHPS			LHTS			RSHO			RUPA			RAEL			RAOL			RWPS			RFRA			RIFD			RHTS			RHPS			RBHD			LFHD			RFHD			LBHD			LHIP			RHIP			RASI			LASI			LKNE			LTHI			LANK			LTIP			LTOE			LMT1			LMT5			LHEE			RKNE			RTHI			RANK			RTIP			RTOE			RMT1			RMT5			RHEE			LWTS			RWTS			*53			*54			*55			
		X1	Y1	Z1	X2	Y2	Z2	X3	Y3	Z3	X4	Y4	Z4	X5	Y5	Z5	X6	Y6	Z6	X7	Y7	Z7	X8	Y8	Z8	X9	Y9	Z9	X10	Y10	Z10	X11	Y11	Z11	X12	Y12	Z12	X13	Y13	Z13	X14	Y14	Z14	X15	Y15	Z15	X16	Y16	Z16	X17	Y17	Z17	X18	Y18	Z18	X19	Y19	Z19	X20	Y20	Z20	X21	Y21	Z21	X22	Y22	Z22	X23	Y23	Z23	X24	Y24	Z24	X25	Y25	Z25	X26	Y26	Z26	X27	Y27	Z27	X28	Y28	Z28	X29	Y29	Z29	X30	Y30	Z30	X31	Y31	Z31	X32	Y32	Z32	X33	Y33	Z33	X34	Y34	Z34	X35	Y35	Z35	X36	Y36	Z36	X37	Y37	Z37	X38	Y38	Z38	X39	Y39	Z39	X40	Y40	Z40	X41	Y41	Z41	X42	Y42	Z42	X43	Y43	Z43	X44	Y44	Z44	X45	Y45	Z45	X46	Y46	Z46	X47	Y47	Z47	X48	Y48	Z48	X49	Y49	Z49	X50	Y50	Z50	X51	Y51	Z51	X52	Y52	Z52	X53	Y53	Z53	X54	Y54	Z54	X55	Y55	Z55	X56	Y56	Z56	

218	2.17	-899.0551147460938	947.9752807617188	-68.01210784912109	-884.2388916015625	952.6116333007812	-197.4952545166016	-887.99609375	1012.148315429688	-142.5030517578125	-651.1595458984375	1174.161376953125	-98.03627014160156	-884.833740234375	1128.421508789062	-169.4883575439453	-822.0693359375	1369.705200195312	-175.8383026123047	-683.3309326171875	1302.4970703125	-110.2358016967773	-896.8746337890625	1231.918090820312	-132.7015533447266	-796.6038208007812	1331.935302734375	-275.5345764160156	-694.55224609375	1344.309814453125	-292.9562377929688	-681.8201904296875	1220.569091796875	-356.3428955078125	-644.5211791992188	1019.148376464844	-347.30029296875	-726.966552734375	1000.433715820312	-328.807373046875	-568.2053833007812	773.68798828125	-311.6741638183594	-619.395263671875	916.5365600585938	-339.3907165527344	-562.6151733398438	629.3191528320312	-224.2842254638672	-568.8883666992188	703.6361083984375	-303.7061157226562	-542.91064453125	711.6002807617188	-244.6182250976562	-832.8687744140625	1354.528930664062	-3.739080190658569	-876.8602905273438	1294.980712890625	46.62552642822266	-944.4321899414062	1036.947509765625	65.11867523193359	-928.7946166992188	1030.562622070312	-27.49875640869141	-952.4722290039062	788.4441528320312	117.6374206542969	-944.5671997070312	968.670654296875	85.91387939453125	-925.4230346679688	618.8834838867188	76.91404724121094	-899.1793212890625	682.91796875	99.15802001953125	-964.6826171875	703.6769409179688	119.0598068237305	-792.3759765625	1576.561889648438	-66.00611114501953	-587.8008422851562	1556.761962890625	-101.7456207275391	-639.217041015625	1554.94873046875	-14.59952259063721	-743.6182250976562	1580.056640625	-201.8075866699219	-799.6090087890625	885.9749755859375	-297.6027221679688	-825.7388916015625	894.9515991210938	46.39255905151367	-720.1326293945312	916.113037109375	3.334434509277344	-679.081298828125	897.7256469726562	-231.007568359375	-874.455078125	442.1615905761719	-275.5333251953125	-832.213134765625	569.9044189453125	-284.8782653808594	-1196.743530273438	134.9845428466797	-270.0356750488281	-1036.398071289062	279.50146484375	-285.9255676269531	-1047.582885742188	41.93167495727539	-198.0949554443359	-1098.867797851562	55.31729125976562	-158.9654998779297	-1105.774047851562	52.51245880126953	-276.4957580566406	-1221.345947265625	163.5208892822266	-204.2190856933594	-632.4165649414062	454.0234680175781	-0.3494789600372314	-698.1737670898438	703.17041015625	52.40922927856445	-628.9364013671875	48.5761833190918	-75.95024871826172	-598.5390014648438	335.8127746582031	-19.74645233154297	-429.4949035644531	54.77650833129883	-66.46578979492188	-469.073486328125	43.02058792114258	-123.0964813232422	-537.8894653320312	40.83219146728516	-28.94500160217285	-661.4363403320312	48.86147308349609	-137.2655944824219	-566.9041137695312	789.3591918945312	-244.1645355224609	-886.17431640625	786.9776611328125	77.1112060546875	nan	nan	nan	nan	nan	nan	nan	nan	nan	
219	2.18	-889.221923828125	949.3943481445312	-66.81288909912109	-873.5429077148438	953.8785400390625	-196.2183532714844	-877.54736328125	1013.275939941406	-141.0205078125	-641.52294921875	1176.203857421875	-94.65093231201172	-874.59228515625	1129.633178710938	-167.4120941162109	-812.6426391601562	1371.1787109375	-173.7302551269531	-673.9705810546875	1304.386474609375	-107.4924163818359	-887.037353515625	1233.240478515625	-130.6445007324219	-786.5038452148438	1333.358154296875	-273.1658935546875	-684.4140625	1345.93359375	-290.0619812011719	-671.4427490234375	1222.203125	-353.3040161132812	-636.510009765625	1020.480163574219	-344.8220825195312	-719.0440063476562	1002.8212890625	-325.6742553710938	-566.23876953125	772.4534301757812	-315.0254516601562	-613.557861328125	917.5113525390625	-338.5451354980469	-564.8947143554688	624.4873657226562	-233.0473175048828	-569.3164672851562	702.2275390625	-309.5497131347656	-543.358642578125	707.1032104492188	-250.1588592529297	-824.18505859375	1356.389404296875	-1.743430972099304	-868.1905517578125	1296.932006835938	48.65573883056641	-934.796630859375	1038.705688476562	67.28547668457031	-918.4806518554688	1032.126586914062	-25.22344398498535	-941.2109375	790.138916015625	120.4665908813477	-934.6704711914062	970.3822021484375	88.18883514404297	-911.9269409179688	620.7587280273438	80.57494354248047	-886.7426147460938	685.1675415039062	102.9297103881836	-952.5095825195312	705.2306518554688	121.9911804199219	-783.483154296875	1578.166015625	-63.67963027954102	-578.76220703125	1558.303588867188	-98.42105102539062	-630.603515625	1556.45068359375	-11.52024745941162	-734.0418701171875	1581.76123046875	-199.2281799316406	-787.8599243164062	887.6389770507812	-295.7110900878906	-816.8985595703125	896.1765747070312	48.1075325012207	-710.9302978515625	917.565673828125	6.156002044677734	-668.2613525390625	899.738037109375	-227.9263305664062	-856.03369140625	441.933837890625	-275.251953125	-815.5073852539062	569.7838134765625	-283.8739929199219	-1186.057373046875	143.57080078125	-272.7210083007812	-1022.000305175781	283.2489013671875	-287.3213806152344	-1047.010864257812	41.07234191894531	-198.4389495849609	-1095.482055664062	58.80035018920898	-160.0854034423828	-1101.699584960938	54.34674072265625	-277.765869140625	-1209.613403320312	174.1115112304688	-207.4331970214844	-625.4532470703125	454.2466125488281	0.8406691551208496	-689.7584228515625	703.8677368164062	53.85537719726562	-628.1049194335938	49.08235549926758	-75.86985778808594	-592.9931640625	335.4469909667969	-19.07005310058594	-428.47509765625	52.35174560546875	-67.01280975341797	-468.373291015625	41.48995971679688	-123.619987487793	-537.1893920898438	40.55313110351562	-29.27143096923828	-660.8602905273438	49.49864196777344	-137.21875	-564.4344482421875	785.6862182617188	-246.9848022460938	-874.4629516601562	789.2894287109375	80.79997253417969	nan	nan	nan	nan	nan	nan	nan	nan	nan	
220	2.19	-879.6123046875	950.667236328125	-65.53165435791016	-863.1443481445312	955.0217895507812	-194.8707580566406	-867.4214477539062	1014.4921875	-139.4178009033203	-632.0481567382812	1178.203247070312	-91.30258178710938	-864.5504760742188	1130.895385742188	-165.2651672363281	-803.2982177734375	1372.667114257812	-171.6329956054688	-664.6746215820312	1306.2578125	-104.8374710083008	-877.3094482421875	1234.616821289062	-128.5398559570312	-776.5479736328125	1334.7724609375	-270.8081970214844	-674.4215087890625	1347.528076171875	-287.2221984863281	-661.3087158203125	1223.825927734375	-350.3879699707031	-628.7653198242188	1021.79638671875	-342.6330261230469	-711.35009765625	1005.178161621094	-322.7075500488281	-564.2638549804688	771.6731567382812	-318.4438171386719	-607.8903198242188	918.6318969726562	-337.9132385253906	-567.4276733398438	620.486328125	-241.7991638183594	-569.7512817382812	701.414794921875	-315.3929443359375	-543.8741455078125	703.2800903320312	-255.8157958984375	-815.5174560546875	1358.308471679688	0.2444739192724228	-859.5291137695312	1298.954956054688	50.70868682861328	-925.0795288085938	1040.5205078125	69.59803771972656	-908.1671752929688	1033.745239257812	-22.81549072265625	-929.54443359375	791.8952026367188	123.4905090332031	-924.6278076171875	972.1375122070312	90.60779571533203	-897.8771362304688	622.7659912109375	84.49932861328125	-873.786376953125	687.5581665039062	106.8972015380859	-939.8152465820312	706.8544921875	125.1796112060547	-774.6592407226562	1579.738525390625	-61.41951751708984	-569.7955932617188	1559.839233398438	-95.14206695556641	-622.0679931640625	1557.942993164062	-8.488428115844727	-724.5203247070312	1583.439331054688	-196.7068634033203	-776.4156494140625	889.231201171875	-293.7388000488281	-808.2449951171875	897.2548217773438	49.87777328491211	-701.9296875	918.9437866210938	9.051740646362305	-657.6738891601562	901.771240234375	-224.8117370605469	-836.7213745117188	441.5320434570312	-275.1208801269531	-798.2182006835938	569.5692138671875	-282.9088745117188	-1174.029663085938	152.3811645507812	-275.5588989257812	-1006.451232910156	286.8419494628906	-288.7606201171875	-1045.380004882812	40.05619049072266	-198.882568359375	-1091.146728515625	62.72152328491211	-161.3428955078125	-1096.685424804688	56.75307083129883	-279.0723571777344	-1196.597534179688	184.7570648193359	-210.7946929931641	-618.953369140625	454.2929382324219	2.024066686630249	-681.6785278320312	704.3862915039062	55.45219802856445	-627.3486938476562	49.54854202270508	-75.80931091308594	-587.8868408203125	334.9814453125	-18.34940528869629	-427.6646423339844	50.33806228637695	-67.47935485839844	-467.8075561523438	40.31135559082031	-124.1089477539062	-536.6196899414062	40.39303970336914	-29.51568031311035	-660.3641967773438	50.02796173095703	-137.1969909667969	-561.998291015625	782.5189208984375	-249.9632873535156	-862.388671875	791.7548828125	84.63997650146484	nan	nan	nan	nan	nan	nan	nan	nan	nan	
221	2.2	-870.2368774414062	951.772705078125	-64.1595458984375	-853.0687255859375	955.9901123046875	-193.4523620605469	-857.646240234375	1015.761047363281	-137.6979522705078	-622.7611083984375	1180.109497070312	-88.02590179443359	-854.7410278320312	1132.179077148438	-163.0492401123047	-794.0557861328125	1374.141845703125	-169.5362701416016	-655.4656982421875	1308.0673828125	-102.2654647827148	-867.7265014648438	1236.015747070312	-126.3821487426758	-766.7739868164062	1336.151245117188	-268.4598999023438	-664.6083374023438	1349.05517578125	-284.452392578125	-651.4808959960938	1225.395141601562	-347.6162414550781	-621.3016967773438	1023.064575195312	-340.7476501464844	-703.899169921875	1007.444091796875	-319.9585266113281	-562.232177734375	771.2854614257812	-321.8884582519531	-602.38427734375	919.8377685546875	-337.50927734375	-570.0679321289062	617.3026123046875	-250.3853759765625	-570.10595703125	701.1275024414062	-321.1489562988281	-544.348388671875	700.115234375	-261.4994506835938	-806.8704223632812	1360.237426757812	2.239967584609985	-850.8809814453125	1300.991821289062	52.79469299316406	-915.3186645507812	1042.339233398438	72.06211853027344	-897.895263671875	1035.36376953125	-20.27072906494141	-917.4984130859375	793.6708984375	126.7081985473633	-914.477783203125	973.8855590820312	93.17884826660156	-883.2728271484375	624.876708984375	88.70577239990234	-860.31982421875	690.0557250976562	111.0576400756836	-926.618408203125	708.5123291015625	128.6243591308594	-765.9098510742188	1581.26171875	-59.2315673828125	-560.9046020507812	1561.345825195312	-91.91930389404297	-613.6112670898438	1559.4072265625	-5.513079166412354	-715.0634155273438	1585.061645507812	-194.2512664794922	-765.3303833007812	890.6920776367188	-291.6949768066406	-799.7681884765625	898.1751708984375	51.71131134033203	-693.1270751953125	920.2105712890625	11.99618530273438	-647.3319702148438	903.7650756835938	-221.6836547851562	-816.6486206054688	441.0127258300781	-275.0920104980469	-780.45068359375	569.2955932617188	-281.9706726074219	-1160.69091796875	161.3145599365234	-278.4966125488281	-989.8069458007812	290.2693481445312	-290.1961059570312	-1042.381958007812	38.97000122070312	-199.4550476074219	-1085.67041015625	67.0543212890625	-162.7656860351562	-1090.52001953125	59.79280853271484	-280.4332275390625	-1182.355834960938	195.3029937744141	-214.2254486083984	-612.9239501953125	454.159912109375	3.20003080368042	-673.9595336914062	704.6868896484375	57.19356155395508	-626.6804809570312	49.96354675292969	-75.77737426757812	-583.2155151367188	334.4181823730469	-17.58748626708984	-427.0432434082031	48.71401596069336	-67.86467742919922	-467.3630065917969	39.43160247802734	-124.5586929321289	-536.1741943359375	40.31870269775391	-29.68968391418457	-659.950439453125	50.46031188964844	-137.1974182128906	-559.5422973632812	779.83740234375	-253.0594024658203	-849.9862670898438	794.3323974609375	88.60938262939453	nan	nan	nan	nan	nan	nan	nan	nan	nan	
